# xmcd
#
# Track frame offsets:
#	150
#	13095
#	30396
#	40590
#	56093
#	69542
#	83650
#	92310
#	103448
#	113349
#	125873
#	135012
#
# Disc length: 1975 seconds
#
# Revision: 0
# Processed by: cddbd v1.5PL3 Copyright (c) Steve Scherf et al.
# Submitted via: audiograbber 1.83.01
#
DISCID=8e07b50c
DTITLE=Antonio Aguilar - El Coscolino
DYEAR=1900
DGENRE=Latin
TTITLE0=El Coscolino
TTITLE1=La Rica Pobre
TTITLE2=El Timido
TTITLE3=La Mal Sentada
TTITLE4=El Charro Ponciano
TTITLE5=Ya Ni Las Copas
TTITLE6=Soy Vergencita
TTITLE7=Ruega Por Nosotros
TTITLE8=Por Una Mujer Casada
TTITLE9=Sentenciado A Muerto
TTITLE10=La Higuera
TTITLE11=Sangre Caliente
EXTD=
EXTT0=
EXTT1=
EXTT2=
EXTT3=
EXTT4=
EXTT5=
EXTT6=
EXTT7=
EXTT8=
EXTT9=
EXTT10=
EXTT11=
PLAYORDER=
